<mxfile host="65bd71144e">
    <diagram id="Hfcl7v5XeGw5iyfwGfEO" name="Page-1">
        <mxGraphModel dx="609" dy="426" grid="1" gridSize="10" guides="1" tooltips="1" connect="1" arrows="1" fold="1" page="1" pageScale="1" pageWidth="827" pageHeight="1169" math="0" shadow="0">
            <root>
                <mxCell id="0"/>
                <mxCell id="1" parent="0"/>
                <mxCell id="2" value="cliente" style="rounded=0;whiteSpace=wrap;html=1;" vertex="1" parent="1">
                    <mxGeometry x="110" y="190" width="120" height="60" as="geometry"/>
                </mxCell>
                <mxCell id="14" style="edgeStyle=orthogonalEdgeStyle;rounded=0;orthogonalLoop=1;jettySize=auto;html=1;entryX=0.5;entryY=0;entryDx=0;entryDy=0;" edge="1" parent="1" source="3" target="2">
                    <mxGeometry relative="1" as="geometry">
                        <Array as="points">
                            <mxPoint x="650" y="140"/>
                            <mxPoint x="170" y="140"/>
                        </Array>
                    </mxGeometry>
                </mxCell>
                <mxCell id="15" value="statusText: nombre codigo de error =&amp;gt; &quot;not found&quot;&lt;br&gt;status: codigo de error =&amp;gt; 100-199; 200-299; 300-399; 400-499; 500-599&lt;br&gt;data: lo que sea" style="edgeLabel;html=1;align=center;verticalAlign=middle;resizable=0;points=[];" vertex="1" connectable="0" parent="14">
                    <mxGeometry x="0.0608" y="1" relative="1" as="geometry">
                        <mxPoint as="offset"/>
                    </mxGeometry>
                </mxCell>
                <mxCell id="3" value="servidor&lt;br&gt;" style="rounded=0;whiteSpace=wrap;html=1;" vertex="1" parent="1">
                    <mxGeometry x="590" y="200" width="120" height="60" as="geometry"/>
                </mxCell>
                <mxCell id="4" value="cliente" style="rounded=0;whiteSpace=wrap;html=1;" vertex="1" parent="1">
                    <mxGeometry x="120" y="200" width="120" height="60" as="geometry"/>
                </mxCell>
                <mxCell id="5" value="cliente" style="rounded=0;whiteSpace=wrap;html=1;" vertex="1" parent="1">
                    <mxGeometry x="130" y="210" width="120" height="60" as="geometry"/>
                </mxCell>
                <mxCell id="6" value="cliente" style="rounded=0;whiteSpace=wrap;html=1;" vertex="1" parent="1">
                    <mxGeometry x="140" y="220" width="120" height="60" as="geometry"/>
                </mxCell>
                <mxCell id="7" value="cliente" style="rounded=0;whiteSpace=wrap;html=1;" vertex="1" parent="1">
                    <mxGeometry x="150" y="230" width="120" height="60" as="geometry"/>
                </mxCell>
                <mxCell id="8" value="cliente" style="rounded=0;whiteSpace=wrap;html=1;" vertex="1" parent="1">
                    <mxGeometry x="160" y="240" width="120" height="60" as="geometry"/>
                </mxCell>
                <mxCell id="12" style="edgeStyle=orthogonalEdgeStyle;rounded=0;orthogonalLoop=1;jettySize=auto;html=1;exitX=1;exitY=0.5;exitDx=0;exitDy=0;entryX=0.5;entryY=1;entryDx=0;entryDy=0;" edge="1" parent="1" source="9" target="3">
                    <mxGeometry relative="1" as="geometry"/>
                </mxCell>
                <mxCell id="13" value="PROTOCOLO://DNS.DOMINIO:PUERTO/RUTAS&lt;br&gt;GET:https://facebook.com/profile/MrXploder&lt;br&gt;POST:https://facebook.com/profile&lt;br&gt;PUT:https://facebook.com/profile/MrXploder&lt;br&gt;DELETE:https://facebook.com/profile/MrXploder&lt;br&gt;&lt;br&gt;HEAD&lt;br&gt;OPTIONS&lt;br&gt;TRACE&lt;br&gt;PATCH" style="edgeLabel;html=1;align=center;verticalAlign=middle;resizable=0;points=[];" vertex="1" connectable="0" parent="12">
                    <mxGeometry x="-0.1423" relative="1" as="geometry">
                        <mxPoint as="offset"/>
                    </mxGeometry>
                </mxCell>
                <mxCell id="9" value="cliente" style="rounded=0;whiteSpace=wrap;html=1;" vertex="1" parent="1">
                    <mxGeometry x="170" y="250" width="120" height="60" as="geometry"/>
                </mxCell>
            </root>
        </mxGraphModel>
    </diagram>
</mxfile>